<svg id="Layer_1" data-name="Layer 1" xmlns="http://www.w3.org/2000/svg" viewBox="0 0 239 239">
    <defs>
        <style>
            .cls-1{fill:#fff;}.cls-1,.cls-10,.cls-11,.cls-12,.cls-13,.cls-14,.cls-15,.cls-2,.cls-3,.cls-4,.cls-7,.cls-8,.cls-9{opacity:0.15;isolation:isolate;}.cls-2{fill:#d5ff27;}.cls-3,.cls-8,.cls-9{fill:#ff0094;}.cls-10,.cls-4{fill:#0060ff;}.cls-5{fill:#d8d6eb;}.cls-6{fill:#f8c2d1;}.cls-7{fill:#ff0;}.cls-10,.cls-11,.cls-14,.cls-8{font-size:12px;}.cls-10,.cls-11,.cls-12,.cls-13,.cls-14,.cls-15,.cls-8,.cls-9{font-family:Arial-Black,
            Arial
            Black;font-weight:800;}.cls-9{font-size:15.11px;}.cls-11,.cls-12,.cls-13{fill:#ff7e00;}.cls-12{font-size:13.01px;}.cls-13{font-size:14.46px;}.cls-14,.cls-15{fill:#9ffffc;}.cls-15{font-size:13.89px;}
        </style>
    </defs>
    <title>Artboard 1</title>
    <rect class="cls-1" width="239" height="239"/>
    <path class="cls-2"
          d="M21.3,220.5a6.3,6.3,0,1,0,6.3,6.3A6.27,6.27,0,0,0,21.3,220.5Zm0,9.3a3,3,0,1,1,3-2.9A3.06,3.06,0,0,1,21.3,229.8Z"/>
    <path class="cls-3" d="M238.5,33.3l.5.6V30.7l-.3.2A1.73,1.73,0,0,0,238.5,33.3Z"/>
    <path class="cls-4"
          d="M72.5,8.88a6.27,6.27,0,0,0,6.3-6.3,6.3,6.3,0,0,0-12.6,0A6.4,6.4,0,0,0,72.5,8.88Zm0-9.2a3,3,0,0,1,3,2.9,3,3,0,0,1-3,3,2.86,2.86,0,0,1-2.9-3A2.9,2.9,0,0,1,72.5-.32Z"/>
    <path class="cls-2"
          d="M215.8,214.2a6.3,6.3,0,1,0,6.3,6.3A6.27,6.27,0,0,0,215.8,214.2Zm0,9.2a3,3,0,1,1,0-5.9,2.93,2.93,0,0,1,2.9,3A2.84,2.84,0,0,1,215.8,223.4Z"/>
    <path class="cls-2"
          d="M21.3,101a6.3,6.3,0,1,0,6.3,6.3A6.27,6.27,0,0,0,21.3,101Zm0,9.3a3,3,0,1,1,3-2.9A3.06,3.06,0,0,1,21.3,110.3Z"/>
    <path class="cls-2"
          d="M140.8,41.3a6.3,6.3,0,1,0,6.3,6.3A6.27,6.27,0,0,0,140.8,41.3Zm0,9.2a3,3,0,0,1,0-6,2.93,2.93,0,0,1,2.9,3A2.86,2.86,0,0,1,140.8,50.5Z"/>
    <path class="cls-5"
          d="M32.52,146.13l-11.13,12,.29.29,1.2,1.2,9.44-9.44a.64.64,0,0,1,.92,0,.65.65,0,0,1,0,.93l-9.43,9.43,1.2,1.2h0l.29.29,12-11.13-.53-4.41Z"/>
    <path class="cls-6" d="M14.8,166.12a1.68,1.68,0,0,0,0,2.4,1.72,1.72,0,0,0,2.4,0l2.38-2.38-.9-3.9Z"/>
    <polygon class="cls-6" points="20.03 160.88 19.77 161.14 20.67 165.05 22.44 163.29 21.23 162.09 20.03 160.88"/>
    <rect class="cls-6" x="17.47" y="160.68" width="9.93" height="1.05"
          transform="translate(118.62 29.91) rotate(44.15)"/>
    <path class="cls-5"
          d="M149.55,174l-9.68-10.44.25-.26,1-1,8.2,8.21a.57.57,0,0,0,.81-.81l-8.21-8.2,1-1.05h0l.25-.25,10.44,9.67-.47,3.84Z"/>
    <path class="cls-6" d="M134.14,156.59a1.46,1.46,0,0,1,0-2.08,1.51,1.51,0,0,1,2.09,0l2.07,2.07-.78,3.39Z"/>
    <polygon class="cls-6" points="138.69 161.15 138.47 160.92 139.25 157.53 140.78 159.06 139.74 160.1 138.69 161.15"/>
    <rect class="cls-6" x="136.46" y="160.42" width="8.63" height="0.91"
          transform="translate(-72.29 143.5) rotate(-44.15)"/>
    <path class="cls-5"
          d="M183.37,43l7.26,7.83-.19.19-.78.79-6.16-6.16a.42.42,0,1,0-.6.6l6.16,6.16-.79.78h0l-.19.19-7.82-7.25.34-2.88Z"/>
    <path class="cls-6" d="M194.93,56.08a1.11,1.11,0,0,1-1.56,1.57l-1.56-1.56.59-2.54Z"/>
    <polygon class="cls-6" points="191.52 52.66 191.69 52.83 191.1 55.38 189.95 54.23 190.73 53.45 191.52 52.66"/>
    <rect class="cls-6" x="186.71" y="52.53" width="6.47" height="0.68"
          transform="translate(363.07 -41.5) rotate(135.85)"/>
    <path class="cls-2"
          d="M119.63,128.25c8.25,0,12.5-1.82,12.5-2.6s-4.25-2.61-12.5-2.61-12.5,1.83-12.5,2.61S111.39,128.25,119.63,128.25Z"/>
    <path class="cls-7"
          d="M132.13,123.58V110.45l-5.55,4.11a.78.78,0,0,1-.64.14.81.81,0,0,1-.52-.38l-5.78-10.15-5.89,10.44a.75.75,0,0,1-.52.38.81.81,0,0,1-.64-.13l-5.46-4v12.74c2.51-1.44,7.63-2.12,12.5-2.12S129.62,122.14,132.13,123.58Zm-13.29-5.11v-1.33h-1.58a.79.79,0,0,1,0-1.58h1.58v-1.34a.79.79,0,1,1,1.58,0v1.34H122a.79.79,0,0,1,0,1.58h-1.59v1.33a.79.79,0,1,1-1.58,0Z"/>
    <path class="cls-7"
          d="M120.42,118.47v-1.33H122a.79.79,0,0,0,0-1.58h-1.59v-1.34a.79.79,0,1,0-1.58,0v1.34h-1.58a.79.79,0,0,0,0,1.58h1.58v1.33a.79.79,0,1,0,1.58,0Z"/>
    <path class="cls-2"
          d="M31.73,34.49c3.37-4.06,4.21-6.9,3.83-7.22s-3,1-6.4,5.08-4.22,6.9-3.83,7.22S28.35,38.54,31.73,34.49Z"/>
    <path class="cls-7"
          d="M34.54,26.42l-6.46-5.37-.25,4.42a.52.52,0,0,1-.19.36.48.48,0,0,1-.4.1l-7.36-1.31,2.73,7.18a.49.49,0,0,1,0,.41.54.54,0,0,1-.33.26l-4.21,1,6.27,5.21c.32-1.82,2.08-4.62,4.07-7S32.81,27.07,34.54,26.42Zm-7.95,4.45-.66-.55-.64.78a.5.5,0,1,1-.78-.64l.64-.78-.65-.55a.5.5,0,0,1-.07-.71.51.51,0,0,1,.72-.07l.65.55.65-.78a.51.51,0,0,1,.71-.06.5.5,0,0,1,.07.71l-.65.78.66.54a.52.52,0,0,1,.06.72A.51.51,0,0,1,26.59,30.87Z"/>
    <path class="cls-7"
          d="M27.24,30.09l-.66-.54.65-.78a.5.5,0,0,0-.07-.71.51.51,0,0,0-.71.06l-.65.78-.65-.55a.51.51,0,0,0-.72.07.5.5,0,0,0,.07.71l.65.55-.64.78a.5.5,0,1,0,.78.64l.64-.78.66.55a.51.51,0,0,0,.71-.06A.52.52,0,0,0,27.24,30.09Z"/>
    <path class="cls-2"
          d="M198.48,76.65c-2.44-4.05-4.6-5.6-5-5.37s0,2.86,2.42,6.91,4.6,5.6,5,5.37S200.92,80.7,198.48,76.65Z"/>
    <path class="cls-7"
          d="M192.48,71.89,186,75.78l3.67,1.51a.44.44,0,0,1,.25.27.43.43,0,0,1,0,.37l-3.27,5.85,6.87-.2a.46.46,0,0,1,.35.14.48.48,0,0,1,.12.35l-.36,3.87,6.26-3.77c-1.45-.81-3.3-3.12-4.75-5.51S192.52,73.55,192.48,71.89Zm1.43,8-.66.4.47.77a.46.46,0,0,1-.15.63.45.45,0,0,1-.62-.16l-.47-.77-.66.39a.45.45,0,0,1-.62-.15.46.46,0,0,1,.15-.63L192,80l-.47-.78a.45.45,0,0,1,.16-.62.45.45,0,0,1,.62.15l.47.78.65-.39a.45.45,0,0,1,.47.77Z"/>
    <path class="cls-7"
          d="M193.44,79.16l-.65.39-.47-.78a.45.45,0,0,0-.62-.15.45.45,0,0,0-.16.62L192,80l-.66.39a.46.46,0,0,0-.15.63.45.45,0,0,0,.62.15l.66-.39.47.77a.45.45,0,0,0,.62.16.46.46,0,0,0,.15-.63l-.47-.77.66-.4a.45.45,0,0,0-.47-.77Z"/>
    <path class="cls-2"
          d="M72.34,187.66c-2.94-4.86-5.53-6.72-6-6.44s0,3.43,2.9,8.29,5.52,6.72,6,6.45S75.27,192.52,72.34,187.66Z"/>
    <path class="cls-7"
          d="M65.14,182l-7.74,4.67,4.4,1.82a.53.53,0,0,1,.3.32.55.55,0,0,1,0,.45l-3.92,7,8.25-.24a.53.53,0,0,1,.55.59l-.42,4.65L74,196.69c-1.75-1-4-3.74-5.7-6.61S65.18,184,65.14,182Zm1.71,9.66-.79.47.57.93a.55.55,0,0,1-.19.75.54.54,0,0,1-.74-.19l-.57-.93-.78.48a.55.55,0,0,1-.57-.94l.79-.47-.56-.93a.54.54,0,1,1,.93-.56l.56.93.79-.48a.55.55,0,0,1,.56.94Z"/>
    <path class="cls-7"
          d="M66.29,190.67l-.79.48-.56-.93a.54.54,0,1,0-.93.56l.56.93-.79.47a.55.55,0,0,0,.57.94l.78-.48.57.93a.54.54,0,0,0,.74.19.55.55,0,0,0,.19-.75l-.57-.93.79-.47a.55.55,0,0,0-.56-.94Z"/>
    <text class="cls-8" transform="matrix(0.85, 0.53, -0.53, 0.85, 99.7, 195.98)">G</text>
    <text class="cls-9" transform="matrix(0.94, -0.35, 0.35, 0.94, 45.67, 61.61)">G</text>
    <text class="cls-9" transform="matrix(0.85, -0.53, -0.53, -0.85, 229.15, 165.7)">G</text>
    <text class="cls-10" transform="matrix(0.58, 0.82, -0.82, 0.58, 179.1, 152.7)">R</text>
    <text class="cls-10" transform="matrix(-0.58, 0.82, 0.82, 0.58, 239.13, 51.84)">R</text>
    <text class="cls-11" transform="translate(54.08 109.57) rotate(-46.65)">A</text>
    <text class="cls-12" transform="translate(215.87 113.39) rotate(133.35)">A</text>
    <text class="cls-11" transform="matrix(-0.69, -0.73, -0.73, 0.69, 164.73, 225.9)">A</text>
    <text class="cls-13" transform="matrix(-0.69, -0.73, -0.73, 0.69, 186.27, 15.87)">A</text>
    <text class="cls-14" transform="matrix(0.82, -0.57, 0.57, 0.82, 21.3, 194.82)">M</text>
    <text class="cls-15" transform="matrix(-0.82, -0.57, -0.57, 0.82, 103.49, 73.63)">M</text>
</svg>