<?xml version="1.0" encoding="utf-8"?>
<!-- Generator: Adobe Illustrator 23.0.1, SVG Export Plug-In . SVG Version: 6.00 Build 0)  -->
<svg version="1.1" id="Layer_1" xmlns="http://www.w3.org/2000/svg" xmlns:xlink="http://www.w3.org/1999/xlink" x="0px" y="0px"
	 viewBox="0 0 239 239" style="enable-background:new 0 0 239 239;" xml:space="preserve">
<style type="text/css">
	.st0{opacity:0.15;fill:#FFFFFF;enable-background:new    ;}
	.st1{opacity:0.15;fill:#0060FF;enable-background:new    ;}
	.st2{opacity:0.15;fill:#D5FF27;enable-background:new    ;}
	.st3{opacity:0.15;fill:#FF7E00;enable-background:new    ;}
	.st4{opacity:0.15;fill:#FF0094;enable-background:new    ;}
	.st5{opacity:0.15;fill:#9FFFFC;enable-background:new    ;}
	.st6{opacity:0.15;fill:#FFFF00;enable-background:new    ;}
</style>
<rect class="st0" width="239" height="239"/>
<path class="st1" d="M219.2,133.1c0-3.5-2.8-6.3-6.3-6.3c-3.5,0-6.3,2.8-6.3,6.3s2.8,6.3,6.3,6.3
	C216.4,139.4,219.2,136.6,219.2,133.1z M212.9,136.1c-1.6,0-3-1.3-3-3c0-1.6,1.3-2.9,3-2.9c1.6,0,2.9,1.3,2.9,2.9
	S214.6,136.1,212.9,136.1z"/>
<path class="st2" d="M214.8,203.9c-0.9,0-1.7,0.7-1.7,1.7v13.6c0,0.9,0.7,1.7,1.7,1.7s1.7-0.7,1.7-1.7v-13.6
	C216.5,204.7,215.7,203.9,214.8,203.9z"/>
<path class="st3" d="M79.7,236c0.9,0,1.7-0.7,1.7-1.7s-0.7-1.7-1.7-1.7h-7.5c-0.9,0-1.7,0.7-1.7,1.7v4.7h3.3v-3H79.7z"/>
<path class="st4" d="M124,197.8l4.5-3.7c0.7-0.6,0.8-1.6,0.2-2.3c-0.6-0.7-1.6-0.8-2.3-0.2l-5.8,4.7c-0.3,0.3-0.6,0.7-0.6,1.1
	c0,0.4,0.1,0.9,0.4,1.2l5.2,6.5l-6.4,5.1c-0.7,0.6-0.8,1.6-0.2,2.3l4.9,6c0.3,0.4,0.8,0.6,1.3,0.6c0.4,0,0.7-0.1,1-0.4
	c0.7-0.6,0.8-1.6,0.2-2.3l-3.8-4.7l6.4-5.1c0.3-0.3,0.6-0.7,0.6-1.1s-0.1-0.9-0.4-1.2L124,197.8z"/>
<path class="st5" d="M184.2,222.5c-0.6,0-0.9-0.3-1.6-1c-0.8-0.9-1.9-2.2-4-2.2s-3.3,1.3-4.1,2.2c-0.7,0.8-1,1-1.6,1
	c-0.6,0-0.9-0.3-1.6-1c-0.8-0.9-1.9-2.2-4-2.2s-3.3,1.3-4,2.2c-0.7,0.8-1,1-1.6,1c-0.6,0-0.9-0.3-1.6-1c-0.8-0.9-1.9-2.2-4-2.2
	c-0.9,0-1.7,0.7-1.7,1.7c0,0.9,0.7,1.7,1.7,1.7c0.6,0,0.9,0.3,1.6,1c0.8,0.9,1.9,2.2,4,2.2c2.2,0,3.3-1.3,4.1-2.2c0.7-0.8,1-1,1.6-1
	c0.6,0,0.9,0.3,1.6,1c0.8,0.9,1.9,2.2,4,2.2c2.2,0,3.3-1.3,4.1-2.2c0.7-0.8,1-1,1.6-1s0.9,0.3,1.6,1c0.8,0.9,1.9,2.2,4.1,2.2
	c0.9,0,1.7-0.7,1.7-1.7C185.8,223.2,185.1,222.5,184.2,222.5z"/>
<path class="st2" d="M21.3,220.5c-3.5,0-6.3,2.8-6.3,6.3c0,3.5,2.8,6.3,6.3,6.3s6.3-2.8,6.3-6.3C27.6,223.3,24.8,220.5,21.3,220.5z
	 M21.3,229.8c-1.6,0-3-1.3-3-2.9c0-1.6,1.3-3,3-3c1.6,0,3,1.3,3,3C24.3,228.4,22.9,229.8,21.3,229.8z"/>
<path class="st6" d="M45.1,186.2H31.5c-0.9,0-1.7,0.7-1.7,1.7s0.7,1.7,1.7,1.7h13.6c0.9,0,1.7-0.7,1.7-1.7S46,186.2,45.1,186.2z"/>
<path class="st1" d="M212.9,19.9c3.5,0,6.3-2.8,6.3-6.3s-2.8-6.3-6.3-6.3c-3.5,0-6.3,2.8-6.3,6.3S209.5,19.9,212.9,19.9z
	 M212.9,10.7c1.6,0,2.9,1.3,2.9,3c0,1.6-1.3,3-2.9,3c-1.6,0-3-1.3-3-2.9C210,12,211.3,10.7,212.9,10.7z"/>
<path class="st2" d="M216.5,99.7V86.1c0-0.9-0.7-1.7-1.7-1.7s-1.7,0.7-1.7,1.7v13.6c0,0.9,0.7,1.7,1.7,1.7S216.5,100.7,216.5,99.7z"
	/>
<path class="st4" d="M238.5,33.3l0.5,0.6v-3.2l-0.3,0.2C238,31.5,237.9,32.6,238.5,33.3z"/>
<path class="st1" d="M93.4,79.6c3.5,0,6.3-2.8,6.3-6.3c0-3.5-2.8-6.3-6.3-6.3c-3.5,0-6.3,2.8-6.3,6.3C87.2,76.8,90,79.6,93.4,79.6z
	 M93.4,70.4c1.6,0,3,1.3,3,2.9c0,1.6-1.3,3-3,3s-2.9-1.3-2.9-3C90.5,71.7,91.8,70.4,93.4,70.4z"/>
<path class="st2" d="M140.8,160.8c-3.5,0-6.3,2.8-6.3,6.3c0,3.5,2.8,6.3,6.3,6.3c3.5,0,6.3-2.8,6.3-6.3
	C147.1,163.6,144.3,160.8,140.8,160.8z M140.8,170c-1.6,0-3-1.3-3-2.9s1.3-3,3-3c1.6,0,2.9,1.3,2.9,3S142.4,170,140.8,170z"/>
<path class="st2" d="M97,159.5v-13.6c0-0.9-0.7-1.7-1.7-1.7s-1.7,0.7-1.7,1.7v13.6c0,0.9,0.7,1.7,1.7,1.7S97,160.4,97,159.5z"/>
<path class="st6" d="M164.6,129.8c0.9,0,1.7-0.7,1.7-1.7c0-0.9-0.7-1.7-1.7-1.7H151c-0.9,0-1.7,0.7-1.7,1.7c0,0.9,0.7,1.7,1.7,1.7
	H164.6z"/>
<path class="st5" d="M163.3,102c-0.7,0.8-1,1-1.6,1c-0.6,0-0.9-0.3-1.6-1c-0.8-0.9-1.9-2.2-4-2.2c-0.9,0-1.7,0.7-1.7,1.7
	s0.7,1.7,1.7,1.7c0.6,0,0.9,0.3,1.6,1c0.8,0.9,1.9,2.2,4,2.2c2.2,0,3.3-1.3,4.1-2.2c0.7-0.8,1-1,1.6-1c0.6,0,0.9,0.3,1.6,1
	c0.8,0.9,1.9,2.2,4,2.2c2.2,0,3.3-1.3,4.1-2.2c0.7-0.8,1-1,1.6-1s0.9,0.3,1.6,1c0.8,0.9,1.9,2.2,4.1,2.2c0.9,0,1.7-0.7,1.7-1.7
	c0-0.9-0.7-1.7-1.7-1.7c-0.6,0-0.9-0.3-1.6-1c-0.8-0.9-1.9-2.2-4-2.2s-3.3,1.3-4.1,2.2c-0.7,0.8-1,1-1.6,1c-0.6,0-0.9-0.3-1.6-1
	c-0.8-0.9-1.9-2.2-4-2.2C165.2,99.8,164.1,101.1,163.3,102z"/>
<path class="st2" d="M21.3,101c-3.5,0-6.3,2.8-6.3,6.3c0,3.5,2.8,6.3,6.3,6.3s6.3-2.8,6.3-6.3C27.6,103.8,24.8,101,21.3,101z
	 M21.3,110.3c-1.6,0-3-1.3-3-2.9c0-1.6,1.3-3,3-3c1.6,0,3,1.3,3,3C24.3,108.9,22.9,110.3,21.3,110.3z"/>
<path class="st6" d="M31.5,70h13.6c0.9,0,1.7-0.7,1.7-1.7c0-0.9-0.7-1.7-1.7-1.7H31.5c-0.9,0-1.7,0.7-1.7,1.7
	C29.8,69.3,30.6,70,31.5,70z"/>
<path class="st2" d="M140.8,41.3c-3.5,0-6.3,2.8-6.3,6.3s2.8,6.3,6.3,6.3c3.5,0,6.3-2.8,6.3-6.3C147.1,44.1,144.3,41.3,140.8,41.3z
	 M140.8,50.5c-1.6,0-3-1.3-3-3c0-1.6,1.3-3,3-3c1.6,0,2.9,1.3,2.9,3C143.8,49.2,142.4,50.5,140.8,50.5z"/>
<path class="st2" d="M95.3,41.6c0.9,0,1.7-0.7,1.7-1.7V26.3c0-0.9-0.7-1.7-1.7-1.7s-1.7,0.7-1.7,1.7V40
	C93.6,40.9,94.4,41.6,95.3,41.6z"/>
<path class="st6" d="M151,10.3h13.6c0.9,0,1.7-0.7,1.7-1.7S165.5,7,164.6,7H151c-0.9,0-1.7,0.7-1.7,1.7S150.1,10.3,151,10.3z"/>
<path class="st3" d="M62.3,3.6c-0.9,0-1.7,0.7-1.7,1.7V13c0,0.9,0.7,1.7,1.7,1.7c0.9,0,1.7-0.7,1.7-1.7V6.9h8.2
	c0.9,0,1.7-0.7,1.7-1.7V0h-3.3v3.6H62.3z"/>
</svg>
